<mxfile host="app.diagrams.net" modified="2023-03-10T15:19:06.383Z" agent="5.0 (Windows NT 10.0; Win64; x64) AppleWebKit/537.36 (KHTML, like Gecko) Chrome/110.0.0.0 Safari/537.36" etag="HbUQ8XZ116hSg3yI4Wcx" version="21.0.6" type="github">
  <diagram name="第 1 页" id="j2GRASkofOzrr11gywz8">
    <mxGraphModel dx="794" dy="515" grid="1" gridSize="10" guides="1" tooltips="1" connect="1" arrows="1" fold="1" page="1" pageScale="1" pageWidth="827" pageHeight="1169" math="0" shadow="0">
      <root>
        <mxCell id="0" />
        <mxCell id="1" parent="0" />
        <mxCell id="HokU_z_8G4_rRD86fYAd-1" value="" style="rounded=0;whiteSpace=wrap;html=1;dashed=1;fontStyle=1;strokeColor=#FF3333;fontFamily=微软雅黑;" parent="1" diagramCategory="general" diagramName="Rectangle" vertex="1">
          <mxGeometry x="270" y="160" width="380" height="170" as="geometry" />
        </mxCell>
        <mxCell id="HokU_z_8G4_rRD86fYAd-2" style="edgeStyle=orthogonalEdgeStyle;rounded=0;orthogonalLoop=1;jettySize=auto;html=1;exitX=0;exitY=0.5;exitDx=0;exitDy=0;entryX=1;entryY=0.5;entryDx=0;entryDy=0;fontStyle=1;fontFamily=微软雅黑;" parent="1" source="HokU_z_8G4_rRD86fYAd-3" target="HokU_z_8G4_rRD86fYAd-13" edge="1">
          <mxGeometry relative="1" as="geometry" />
        </mxCell>
        <mxCell id="HokU_z_8G4_rRD86fYAd-3" value="" style="rounded=0;whiteSpace=wrap;html=1;fontStyle=1;fontFamily=微软雅黑;" parent="1" diagramCategory="general" diagramName="Rectangle" vertex="1">
          <mxGeometry x="520" y="250" width="120" height="60" as="geometry" />
        </mxCell>
        <mxCell id="HokU_z_8G4_rRD86fYAd-4" style="edgeStyle=orthogonalEdgeStyle;rounded=0;orthogonalLoop=1;jettySize=auto;html=1;exitX=1;exitY=0.5;exitDx=0;exitDy=0;entryX=0;entryY=0.5;entryDx=0;entryDy=0;fontStyle=1;fontFamily=微软雅黑;" parent="1" source="HokU_z_8G4_rRD86fYAd-6" target="HokU_z_8G4_rRD86fYAd-9" edge="1">
          <mxGeometry relative="1" as="geometry" />
        </mxCell>
        <mxCell id="HokU_z_8G4_rRD86fYAd-5" style="edgeStyle=orthogonalEdgeStyle;rounded=0;orthogonalLoop=1;jettySize=auto;html=1;exitX=0.5;exitY=0;exitDx=0;exitDy=0;entryX=0;entryY=0.5;entryDx=0;entryDy=0;fontStyle=1;fontFamily=微软雅黑;" parent="1" source="HokU_z_8G4_rRD86fYAd-6" target="HokU_z_8G4_rRD86fYAd-13" edge="1">
          <mxGeometry relative="1" as="geometry" />
        </mxCell>
        <mxCell id="HokU_z_8G4_rRD86fYAd-6" value="" style="rounded=0;whiteSpace=wrap;html=1;fontStyle=1;fontFamily=微软雅黑;" parent="1" vertex="1">
          <mxGeometry x="110" y="360" width="120" height="60" as="geometry" />
        </mxCell>
        <mxCell id="HokU_z_8G4_rRD86fYAd-7" style="edgeStyle=orthogonalEdgeStyle;rounded=0;orthogonalLoop=1;jettySize=auto;html=1;exitX=1;exitY=0.5;exitDx=0;exitDy=0;entryX=0;entryY=0.5;entryDx=0;entryDy=0;fontStyle=1;fontFamily=微软雅黑;" parent="1" source="HokU_z_8G4_rRD86fYAd-9" target="HokU_z_8G4_rRD86fYAd-11" edge="1">
          <mxGeometry relative="1" as="geometry" />
        </mxCell>
        <mxCell id="HokU_z_8G4_rRD86fYAd-8" style="edgeStyle=orthogonalEdgeStyle;rounded=0;orthogonalLoop=1;jettySize=auto;html=1;exitX=0.5;exitY=0;exitDx=0;exitDy=0;entryX=0.5;entryY=1;entryDx=0;entryDy=0;fontStyle=1;fontFamily=微软雅黑;" parent="1" source="HokU_z_8G4_rRD86fYAd-9" target="HokU_z_8G4_rRD86fYAd-13" edge="1">
          <mxGeometry relative="1" as="geometry" />
        </mxCell>
        <mxCell id="HokU_z_8G4_rRD86fYAd-9" value="准实时表（iceberg）" style="rounded=1;whiteSpace=wrap;html=1;fontStyle=1;arcSize=2;fontFamily=微软雅黑;" parent="1" vertex="1">
          <mxGeometry x="320" y="360" width="120" height="60" as="geometry" />
        </mxCell>
        <mxCell id="HokU_z_8G4_rRD86fYAd-10" value="同步" style="text;html=1;strokeColor=none;fillColor=none;align=center;verticalAlign=middle;whiteSpace=wrap;rounded=0;fontStyle=1;fontFamily=微软雅黑;" parent="1" vertex="1">
          <mxGeometry x="250" y="370" width="40" height="20" as="geometry" />
        </mxCell>
        <mxCell id="HokU_z_8G4_rRD86fYAd-11" value="BI报表" style="rounded=1;whiteSpace=wrap;html=1;fontStyle=1;arcSize=5;fontFamily=微软雅黑;" parent="1" vertex="1">
          <mxGeometry x="510" y="360" width="140" height="60" as="geometry" />
        </mxCell>
        <mxCell id="HokU_z_8G4_rRD86fYAd-13" value="报警" style="rounded=1;whiteSpace=wrap;html=1;fontStyle=1;fontFamily=微软雅黑;" parent="1" vertex="1">
          <mxGeometry x="320" y="250" width="120" height="60" as="geometry" />
        </mxCell>
        <mxCell id="HokU_z_8G4_rRD86fYAd-14" value="spark" style="text;html=1;strokeColor=none;fillColor=none;align=center;verticalAlign=middle;whiteSpace=wrap;rounded=0;fontStyle=1;fontFamily=微软雅黑;" parent="1" vertex="1">
          <mxGeometry x="350" y="330" width="100" height="20" as="geometry" />
        </mxCell>
        <mxCell id="HokU_z_8G4_rRD86fYAd-19" value="&lt;ul&gt;&lt;li&gt;飞书&lt;/li&gt;&lt;li&gt;popo&lt;/li&gt;&lt;li&gt;电话&lt;/li&gt;&lt;/ul&gt;" style="text;html=1;strokeColor=none;fillColor=none;align=center;verticalAlign=middle;whiteSpace=wrap;rounded=0;fontStyle=1;fontFamily=微软雅黑;" parent="1" diagramCategory="general" diagramName="text" vertex="1">
          <mxGeometry x="549" y="260" width="90" height="40" as="geometry" />
        </mxCell>
        <mxCell id="HokU_z_8G4_rRD86fYAd-20" value="flink" style="text;html=1;strokeColor=none;fillColor=none;align=center;verticalAlign=middle;whiteSpace=wrap;rounded=0;fontStyle=1;fontFamily=微软雅黑;" parent="1" vertex="1">
          <mxGeometry x="180" y="260" width="100" height="20" as="geometry" />
        </mxCell>
        <mxCell id="HokU_z_8G4_rRD86fYAd-21" style="edgeStyle=orthogonalEdgeStyle;rounded=0;orthogonalLoop=1;jettySize=auto;html=1;exitX=0.5;exitY=1;exitDx=0;exitDy=0;entryX=0.5;entryY=0;entryDx=0;entryDy=0;fontStyle=1;fontFamily=微软雅黑;" parent="1" source="HokU_z_8G4_rRD86fYAd-22" target="HokU_z_8G4_rRD86fYAd-13" edge="1">
          <mxGeometry relative="1" as="geometry" />
        </mxCell>
        <mxCell id="HokU_z_8G4_rRD86fYAd-22" value="" style="rounded=0;whiteSpace=wrap;html=1;fontStyle=1;fontFamily=微软雅黑;" parent="1" diagramCategory="general" diagramName="Rectangle" vertex="1">
          <mxGeometry x="320" y="170" width="120" height="60" as="geometry" />
        </mxCell>
        <mxCell id="HokU_z_8G4_rRD86fYAd-23" value="SQL+UDF" style="text;html=1;strokeColor=none;fillColor=none;align=center;verticalAlign=middle;whiteSpace=wrap;rounded=0;fontStyle=1;fontFamily=微软雅黑;" parent="1" vertex="1">
          <mxGeometry x="539" y="170" width="100" height="20" as="geometry" />
        </mxCell>
        <mxCell id="HokU_z_8G4_rRD86fYAd-24" value="规则" style="text;html=1;strokeColor=none;fillColor=none;align=center;verticalAlign=middle;whiteSpace=wrap;rounded=0;fontStyle=1;fontFamily=微软雅黑;" parent="1" vertex="1">
          <mxGeometry x="290" y="190" width="100" height="20" as="geometry" />
        </mxCell>
        <mxCell id="HokU_z_8G4_rRD86fYAd-25" style="edgeStyle=orthogonalEdgeStyle;rounded=0;orthogonalLoop=1;jettySize=auto;html=1;exitX=0.5;exitY=1;exitDx=0;exitDy=0;fontFamily=微软雅黑;" parent="1" source="HokU_z_8G4_rRD86fYAd-24" target="HokU_z_8G4_rRD86fYAd-24" edge="1">
          <mxGeometry relative="1" as="geometry" />
        </mxCell>
        <mxCell id="HokU_z_8G4_rRD86fYAd-26" value="策略" style="text;html=1;strokeColor=none;fillColor=none;align=center;verticalAlign=middle;whiteSpace=wrap;rounded=0;fontStyle=1;fontFamily=微软雅黑;" parent="1" vertex="1">
          <mxGeometry x="490" y="270" width="100" height="20" as="geometry" />
        </mxCell>
        <mxCell id="HokU_z_8G4_rRD86fYAd-27" value="&lt;ul&gt;&lt;li&gt;动态&lt;/li&gt;&lt;li&gt;业务&lt;/li&gt;&lt;li&gt;稽核&lt;/li&gt;&lt;/ul&gt;" style="text;html=1;strokeColor=none;fillColor=none;align=center;verticalAlign=middle;whiteSpace=wrap;rounded=0;fontStyle=1;fontFamily=微软雅黑;" parent="1" diagramCategory="general" diagramName="text" vertex="1">
          <mxGeometry x="340" y="180" width="90" height="40" as="geometry" />
        </mxCell>
        <mxCell id="fxwfkrI7pK97oEY9HZgv-1" value="&lt;b&gt;指标实时计算&lt;/b&gt;" style="text;html=1;strokeColor=none;fillColor=none;align=center;verticalAlign=middle;whiteSpace=wrap;rounded=0;fontFamily=微软雅黑;" vertex="1" parent="1">
          <mxGeometry x="125" y="365" width="90" height="30" as="geometry" />
        </mxCell>
        <mxCell id="fxwfkrI7pK97oEY9HZgv-2" value="&lt;b&gt;集市表（kafka）&lt;/b&gt;" style="text;html=1;strokeColor=none;fillColor=none;align=center;verticalAlign=middle;whiteSpace=wrap;rounded=0;fontFamily=微软雅黑;" vertex="1" parent="1">
          <mxGeometry x="125" y="390" width="100" height="30" as="geometry" />
        </mxCell>
      </root>
    </mxGraphModel>
  </diagram>
</mxfile>
